<?xml version="1.0" encoding="UTF-8" standalone="no"?>
<svg
   xmlns:dc="http://purl.org/dc/elements/1.1/"
   xmlns:cc="http://creativecommons.org/ns#"
   xmlns:rdf="http://www.w3.org/1999/02/22-rdf-syntax-ns#"
   xmlns:svg="http://www.w3.org/2000/svg"
   xmlns="http://www.w3.org/2000/svg"
   xmlns:sodipodi="http://sodipodi.sourceforge.net/DTD/sodipodi-0.dtd"
   xmlns:inkscape="http://www.inkscape.org/namespaces/inkscape"
   version="1.1"
   height="79.998756"
   width="79.999985"
   id="svg4047"
   inkscape:version="0.48.0 r9654"
   sodipodi:docname="xmcr.svg"
   inkscape:export-filename="/home/aperez/xmcr-icon.png"
   inkscape:export-xdpi="90"
   inkscape:export-ydpi="90">
  <metadata
     id="metadata4095" />
  <sodipodi:namedview
     pagecolor="#ffffff"
     bordercolor="#666666"
     borderopacity="1"
     objecttolerance="10"
     gridtolerance="10"
     guidetolerance="10"
     inkscape:pageopacity="0"
     inkscape:pageshadow="2"
     inkscape:window-width="1280"
     inkscape:window-height="723"
     id="namedview4093"
     showgrid="false"
     inkscape:zoom="4"
     inkscape:cx="43.999119"
     inkscape:cy="31.004458"
     inkscape:window-x="0"
     inkscape:window-y="24"
     inkscape:window-maximized="1"
     inkscape:current-layer="svg4047"
     fit-margin-top="0"
     fit-margin-left="0"
     fit-margin-right="0"
     fit-margin-bottom="0" />
  <defs
     id="defs4049">
    <linearGradient
       id="hicg_overlay_grad"
       gradientUnits="userSpaceOnUse"
       x1="39.9995"
       y1="5.1816001"
       x2="39.9995"
       y2="58.801899">
      <stop
         offset="0"
         style="stop-color:#FFFFFF"
         id="stop4052" />
      <stop
         offset="1"
         style="stop-color:#000000"
         id="stop4054" />
    </linearGradient>
    <filter
       id="hicg_drop_shadow"
       color-interpolation-filters="sRGB">
      <feOffset
         in="SourceAlpha"
         dx="0"
         dy="4"
         id="feOffset4057" />
      <feGaussianBlur
         stdDeviation="4"
         id="feGaussianBlur4059" />
      <feColorMatrix
         type="matrix"
         values="1 0 0 0 0  0 1 0 0 0  0 0 1 0 0  0 0 0 0.5 0"
         result="shadow"
         id="feColorMatrix4061" />
      <feBlend
         in="SourceGraphic"
         in2="shadow"
         mode="normal"
         id="feBlend4063" />
    </filter>
    <clipPath
       clipPathUnits="userSpaceOnUse"
       id="clipPath4653">
      <path
         d="M 135.71688,97.186823 C 114.00579,145.72471 89.435507,155.11044 40.894266,133.39785 -7.6469756,111.68527 -17.027842,87.113127 4.68324,38.575243 26.395074,-9.9643205 50.964604,-19.348368 99.505845,2.3642164 148.04709,24.076801 157.42871,48.647259 135.71688,97.186823 z"
         id="path4655"
         style="fill:none;stroke:#000000;stroke-width:1;stroke-miterlimit:4;stroke-opacity:1;stroke-dasharray:none"
         inkscape:connector-curvature="0" />
    </clipPath>
  </defs>
  <g
     id="g4065"
     transform="matrix(1.0256408,0,0,1.0256251,-1.0256408,-1.0256251)">
    <path
       id="hicg_background"
       d="M 79,40 C 79,68.893 68.895,79 40,79 11.105,79 1,68.893 1,40 1,11.106 11.105,1 40,1 68.895,1 79,11.106 79,40 z"
       inkscape:connector-curvature="0"
       style="fill:#7f7f7f" />
    <path
       id="hicg_highlight"
       d="M 39.999,1 C 11.105,1 1,11.106 1,40 1,68.893 11.105,79 39.999,79 68.896,79 79,68.893 79,40 79,11.106 68.896,1 39.999,1 z m 0,77.025 C 11.57,78.025 1.976,68.43 1.976,40 c 0,-28.429 9.595,-38.024 38.023,-38.024 28.43,0 38.024,9.596 38.024,38.024 0,28.43 -9.594,38.025 -38.024,38.025 z"
       inkscape:connector-curvature="0"
       style="opacity:0.25;fill:#ffffff" />
    <path
       id="hicg_overlay"
       d="M 78.977,40 C 78.977,68.893 68.877,79 40,79 11.123,79 1.023,68.893 1.023,40 1.023,11.106 11.123,1 40,1 68.877,1 78.977,11.106 78.977,40 z"
       inkscape:connector-curvature="0"
       style="opacity:0.4;fill:url(#hicg_overlay_grad)" />
  </g>
  <g
     transform="matrix(0.32822042,-0.14681133,0.14681358,0.32821538,6.9930426,28.02594)"
     id="g4070"
     clip-path="url(#clipPath4653)">
    <defs
       id="defs4">
      <filter
         inkscape:collect="always"
         id="filter3923"
         color-interpolation-filters="sRGB">
        <feGaussianBlur
           inkscape:collect="always"
           stdDeviation="2.0339977"
           id="feGaussianBlur3925" />
      </filter>
      <clipPath
         clipPathUnits="userSpaceOnUse"
         id="clipPath3927">
        <path
           inkscape:connector-curvature="0"
           id="path3929"
           style="fill:none;stroke:#000000;stroke-opacity:1"
           d="m 270.2197,407.48474 12.6886,0 c 1.0315,0 1.86191,0.83042 1.86191,1.86192 l 0,49.74945 c 0,1.0315 -0.83041,1.86192 -1.86191,1.86192 l -12.6886,0 c -1.0315,0 -1.86191,-0.83042 -1.86191,-1.86192 l 0,-49.74945 c 0,-1.0315 0.83041,-1.86192 1.86191,-1.86192 z m 99.46529,5.70285 0,20.67828 c 1.65424,0.66173 3.41878,0.99258 5.29364,0.99255 3.45554,3e-5 5.93693,-0.88224 7.44418,-2.64681 1.50718,-1.76452 2.26078,-4.79733 2.26082,-9.09845 -4e-5,-4.44808 -0.82717,-7.35223 -2.48139,-8.71244 -1.6543,-1.39689 -4.24597,-2.09535 -7.77503,-2.0954 -0.91906,5e-5 -2.4998,0.29414 -4.74222,0.88227 m 0,26.7439 c -2e-5,8.74922 0.36759,15.49493 1.10284,20.23714 l -0.22056,0.33085 c -4.52168,-0.22056 -7.42582,-0.33085 -8.71245,-0.33085 -1.36019,0 -4.28271,0.11029 -8.76759,0.33085 l -0.11028,-0.33085 c 0.73522,-4.52164 1.10283,-11.26735 1.10284,-20.23714 l 0,-11.46954 c -10e-6,-8.96974 -0.36762,-15.71545 -1.10284,-20.23714 l 0.11028,-0.33085 c 4.52164,0.22062 7.4074,0.3309 8.65731,0.33085 1.06606,5e-5 4.24591,-0.0551 9.53957,-0.16543 5.33037,-0.11023 8.71241,-0.16537 10.14614,-0.16542 7.16843,5e-5 12.11283,1.3786 14.83322,4.13565 2.75705,2.72039 4.1356,5.97377 4.13565,9.76015 -5e-5,0.91907 -0.0736,1.8381 -0.22057,2.7571 -0.11034,0.88231 -0.31252,1.8381 -0.60656,2.86739 -0.25738,1.02935 -0.64338,2.04028 -1.15798,3.03281 -0.47795,0.95582 -1.06614,1.87486 -1.76455,2.7571 -0.69852,0.8823 -1.58079,1.70943 -2.64682,2.4814 -1.02936,0.77201 -2.18735,1.41533 -3.47395,1.92997 1.13956,1.58076 3.56581,5.20175 7.27875,10.86298 3.74961,5.6245 6.56185,9.5212 8.43674,11.69012 l -0.22057,0.33085 c -1.43375,-0.22056 -4.24599,-0.33085 -8.43673,-0.33085 -5.03636,0 -8.25298,0.11029 -9.64986,0.33085 -0.58823,-2.31596 -2.64686,-6.15752 -6.17592,-11.52469 -0.36765,-0.58817 -1.34182,-2.09538 -2.92253,-4.52165 -1.54401,-2.42623 -2.73875,-4.22753 -3.58423,-5.40392 -2.79389,-0.22055 -4.65034,-0.51464 -5.56935,-0.88227 l 0,1.76454 M 322.7591,413.29788 c -3.82321,4e-5 -6.91116,1.70945 -9.26387,5.12821 -2.31599,3.41885 -3.47397,8.14268 -3.47395,14.17151 -2e-5,6.10241 1.19473,11.23062 3.58424,15.38464 0.99253,1.72779 2.59165,3.25339 4.79736,4.57679 2.24241,1.32341 4.19076,1.98512 5.84506,1.98511 6.46996,10e-6 10.97322,-1.67263 13.5098,-5.01793 l 1.81969,0 c -5e-5,1.65427 0.20214,3.4372 0.60656,5.34878 -2.64686,2.42626 -5.29368,4.13566 -7.94046,5.12822 -2.64685,0.95579 -6.0289,1.43369 -10.14613,1.43369 -4.30111,0 -8.4,-0.71685 -12.29668,-2.15054 -3.85997,-1.43369 -6.80087,-3.3269 -8.82274,-5.67963 -4.44813,-5.10982 -6.67219,-11.04678 -6.67218,-17.81089 -10e-6,-9.11679 2.59166,-16.17497 7.77503,-21.17455 5.22009,-5.03626 11.78199,-7.55441 19.68571,-7.55447 2.79383,6e-5 6.23102,0.44119 10.31157,1.32341 4.11723,0.88233 7.03975,1.80136 8.76759,2.75711 l 0.22057,0.33085 -2.70197,11.74526 -3.19824,0.11028 c -1.21317,-3.16144 -3.01447,-5.62444 -5.40392,-7.38903 -2.35276,-1.7645 -4.68711,-2.64678 -7.00304,-2.64682 m 13.23409,-79.63617 13.78552,0 c 5.80826,11.83721 11.21218,22.42447 16.21177,31.76183 l 17.20432,-31.76183 12.62753,0 c 3.60254,31.46776 5.71632,49.24187 6.34134,53.32238 -0.84559,-0.14705 -5.22019,-0.22057 -13.12381,-0.22057 -1.94842,0 -3.34535,0.0735 -4.1908,0.22057 -1.43375,-16.98374 -2.57335,-29.28041 -3.4188,-36.89004 -8.82279,16.13826 -15.09059,28.36141 -18.80345,36.66947 l -2.81224,0 c -1.83811,-3.8967 -7.99563,-16.10147 -18.4726,-36.61433 -2.16893,19.96144 -3.27177,32.23973 -3.30852,36.8349 -0.51467,-0.14705 -1.61751,-0.22057 -3.30852,-0.22057 -3.5291,0 -5.60612,0.0735 -6.23106,0.22057 3.63937,-22.5347 6.13914,-40.30881 7.49932,-53.32238 m -52.4401,27.90189 -20.73341,-27.07476 c 1.28664,0.22062 4.74221,0.33091 10.3667,0.33086 5.10982,5e-5 8.34482,-0.11024 9.70501,-0.33086 2.38946,3.97028 6.58026,10.05428 12.57239,18.25203 7.13166,-9.08002 11.74521,-15.16402 13.84066,-18.25203 0.91898,0.22062 2.35267,0.33091 4.30108,0.33086 4.2275,5e-5 6.78241,-0.11024 7.66474,-0.33086 l -21.33997,24.3728 c 4.66865,6.69059 11.67168,16.10149 21.00912,28.23273 -1.21318,-0.22057 -4.3379,-0.33085 -9.37415,-0.33085 -5.6613,0 -9.0801,0.11028 -10.25642,0.33085 -1.87487,-2.94091 -6.17595,-9.19033 -12.90325,-18.7483 -0.18383,0.29411 -0.90068,1.30505 -2.15054,3.03281 -1.21315,1.7278 -2.00351,2.83064 -2.3711,3.30853 -0.36764,0.47791 -1.06611,1.45208 -2.0954,2.92253 -0.99258,1.4337 -1.76457,2.53654 -2.31597,3.30852 -0.55144,0.77199 -1.23152,1.74617 -2.04026,2.92253 -0.772,1.1396 -1.50723,2.22406 -2.20568,3.25338 -0.84552,-0.22057 -3.36368,-0.33085 -7.55446,-0.33085 -1.94836,0 -3.34529,0.11028 -4.1908,0.33085 l 20.07171,-25.53077" />
      </clipPath>
      <filter
         inkscape:collect="always"
         id="filter3939"
         color-interpolation-filters="sRGB">
        <feGaussianBlur
           inkscape:collect="always"
           stdDeviation="1.3559985"
           id="feGaussianBlur3941" />
      </filter>
      <filter
         inkscape:collect="always"
         id="filter3947"
         color-interpolation-filters="sRGB">
        <feGaussianBlur
           inkscape:collect="always"
           stdDeviation="2.0339977"
           id="feGaussianBlur3949" />
      </filter>
    </defs>
    <sodipodi:namedview
       id="base"
       pagecolor="#ffffff"
       bordercolor="#666666"
       borderopacity="1.0"
       inkscape:pageopacity="0.0"
       inkscape:pageshadow="2"
       inkscape:zoom="4.1969495"
       inkscape:cx="72.563292"
       inkscape:cy="57.404022"
       inkscape:document-units="px"
       inkscape:current-layer="layer1"
       showgrid="false"
       showguides="true"
       inkscape:guide-bbox="true"
       inkscape:window-width="1280"
       inkscape:window-height="971"
       inkscape:window-x="1366"
       inkscape:window-y="26"
       inkscape:window-maximized="1"
       fit-margin-top="0"
       fit-margin-left="0"
       fit-margin-right="0"
       fit-margin-bottom="0" />
    <metadata
       id="metadata7">
      <rdf:RDF>
        <cc:Work
           rdf:about="">
          <dc:format>image/svg+xml</dc:format>
          <dc:type
             rdf:resource="http://purl.org/dc/dcmitype/StillImage" />
          <dc:title />
        </cc:Work>
      </rdf:RDF>
    </metadata>
    <g
       inkscape:label="Layer 1"
       inkscape:groupmode="layer"
       id="layer1"
       transform="translate(-268.13219,-328.40731)">
      <path
         inkscape:connector-curvature="0"
         id="path3931"
         style="fill:#4d4d4d;fill-opacity:1;stroke:none;filter:url(#filter3939)"
         d="m 363.68499,411.18759 0,20.67828 c 1.65424,0.66173 3.41878,0.99258 5.29364,0.99255 3.45554,3e-5 5.93693,-0.88224 7.44418,-2.64681 1.50718,-1.76452 2.26078,-4.79733 2.26082,-9.09845 -4e-5,-4.44808 -0.82717,-7.35223 -2.48139,-8.71244 -1.6543,-1.39689 -4.24597,-2.09535 -7.77503,-2.0954 -0.91906,5e-5 -2.4998,0.29414 -4.74222,0.88227 m 0,26.7439 c -2e-5,8.74922 0.36759,15.49493 1.10284,20.23714 l -0.22056,0.33085 c -4.52168,-0.22056 -7.42582,-0.33085 -8.71245,-0.33085 -1.36019,0 -4.28271,0.11029 -8.76759,0.33085 l -0.11028,-0.33085 c 0.73522,-4.52164 1.10284,-11.26735 1.10284,-20.23714 l 0,-11.46954 c 0,-8.96974 -0.36762,-15.71545 -1.10284,-20.23714 l 0.11028,-0.33085 c 4.52164,0.22062 7.4074,0.3309 8.65731,0.33085 1.06606,5e-5 4.24591,-0.0551 9.53957,-0.16543 5.33037,-0.11023 8.71241,-0.16537 10.14614,-0.16542 7.16843,5e-5 12.11283,1.3786 14.83322,4.13565 2.75705,2.72039 4.1356,5.97377 4.13565,9.76015 -5e-5,0.91907 -0.0736,1.8381 -0.22057,2.7571 -0.11034,0.88231 -0.31252,1.8381 -0.60656,2.86739 -0.25738,1.02935 -0.64338,2.04028 -1.15798,3.03281 -0.47795,0.95582 -1.06614,1.87486 -1.76455,2.7571 -0.69852,0.8823 -1.58079,1.70943 -2.64682,2.4814 -1.02936,0.77201 -2.18735,1.41533 -3.47395,1.92997 1.13956,1.58076 3.56581,5.20175 7.27875,10.86298 3.74961,5.6245 6.56185,9.5212 8.43674,11.69012 l -0.22057,0.33085 c -1.43375,-0.22056 -4.24599,-0.33085 -8.43673,-0.33085 -5.03636,0 -8.25298,0.11029 -9.64986,0.33085 -0.58823,-2.31596 -2.64686,-6.15752 -6.17592,-11.52469 -0.36765,-0.58817 -1.34182,-2.09538 -2.92253,-4.52165 -1.54401,-2.42623 -2.73875,-4.22753 -3.58423,-5.40392 -2.79389,-0.22055 -4.65034,-0.51464 -5.56935,-0.88227 l 0,1.76454 M 312.7591,411.29788 c -3.82321,4e-5 -6.91116,1.70945 -9.26387,5.12821 -2.31599,3.41885 -3.47397,8.14268 -3.47395,14.17151 -2e-5,6.10241 1.19473,11.23062 3.58424,15.38464 0.99253,1.72779 2.59165,3.25339 4.79736,4.57679 2.24241,1.32341 4.19076,1.98512 5.84506,1.98511 6.46996,10e-6 10.97322,-1.67263 13.5098,-5.01793 l 1.81969,0 c -5e-5,1.65427 0.20214,3.4372 0.60656,5.34878 -2.64686,2.42626 -5.29368,4.13566 -7.94046,5.12822 -2.64685,0.95579 -6.0289,1.43369 -10.14613,1.43369 -4.30111,0 -8.4,-0.71685 -12.29668,-2.15054 -3.85997,-1.43369 -6.80087,-3.3269 -8.82274,-5.67963 -4.44813,-5.10982 -6.67219,-11.04678 -6.67218,-17.81089 -10e-6,-9.11679 2.59166,-16.17497 7.77503,-21.17455 5.22009,-5.03626 11.78199,-7.55441 19.68571,-7.55447 2.79383,6e-5 6.23102,0.44119 10.31157,1.32341 4.11723,0.88233 7.03975,1.80136 8.76759,2.75711 l 0.22057,0.33085 -2.70197,11.74526 -3.19824,0.11028 c -1.21317,-3.16144 -3.01447,-5.62444 -5.40392,-7.38903 -2.35276,-1.7645 -4.68711,-2.64678 -7.00304,-2.64682 m 21.23409,-79.63617 13.78552,0 c 5.80826,11.83721 11.21218,22.42447 16.21177,31.76183 l 17.20432,-31.76183 12.62753,0 c 3.60254,31.46776 5.71632,49.24187 6.34134,53.32238 -0.84559,-0.14705 -5.22019,-0.22057 -13.12381,-0.22057 -1.94842,0 -3.34535,0.0735 -4.1908,0.22057 -1.43375,-16.98374 -2.57335,-29.28041 -3.4188,-36.89004 -8.82279,16.13826 -15.09059,28.36141 -18.80345,36.66947 l -2.81224,0 c -1.83811,-3.8967 -7.99563,-16.10147 -18.4726,-36.61433 -2.16893,19.96144 -3.27177,32.23973 -3.30852,36.8349 -0.51467,-0.14705 -1.61751,-0.22057 -3.30852,-0.22057 -3.5291,0 -5.60612,0.0735 -6.23106,0.22057 3.63937,-22.5347 6.13914,-40.30881 7.49932,-53.32238 m -40.4401,27.90189 -20.73341,-27.07476 c 1.28664,0.22062 4.74221,0.33091 10.3667,0.33086 5.10982,5e-5 8.34482,-0.11024 9.70501,-0.33086 2.38946,3.97028 6.58026,10.05428 12.57239,18.25203 7.13166,-9.08002 11.74521,-15.16402 13.84066,-18.25203 0.91898,0.22062 2.35267,0.33091 4.30108,0.33086 4.2275,5e-5 6.78241,-0.11024 7.66474,-0.33086 l -21.33997,24.3728 c 4.66865,6.69059 11.67168,16.10149 21.00912,28.23273 -1.21318,-0.22057 -4.3379,-0.33085 -9.37415,-0.33085 -5.6613,0 -9.0801,0.11028 -10.25642,0.33085 -1.87487,-2.94091 -6.17595,-9.19033 -12.90325,-18.7483 -0.18383,0.29411 -0.90068,1.30505 -2.15054,3.03281 -1.21315,1.7278 -2.00351,2.83064 -2.3711,3.30853 -0.36764,0.47791 -1.06611,1.45208 -2.0954,2.92253 -0.99258,1.4337 -1.76457,2.53654 -2.31597,3.30852 -0.55144,0.77199 -1.23152,1.74617 -2.04026,2.92253 -0.772,1.1396 -1.50723,2.22406 -2.20568,3.25338 -0.84552,-0.22057 -3.36368,-0.33085 -7.55446,-0.33085 -1.94836,0 -3.34529,0.11028 -4.1908,0.33085 l 20.07171,-25.53077"
         sodipodi:nodetypes="cccscccccccsccssccccccccccccccccsccccccccsccsccccsccscccccccccccccccsccccccsccccccccccccsccccccccscc" />
      <path
         id="rect2991"
         style="fill:#b3b3b3;fill-opacity:0.42929293;stroke:none;filter:url(#filter3923)"
         d="m 361.87909,409.23744 0,20.67828 c 1.65424,0.66173 3.41878,0.99258 5.29364,0.99255 3.45554,3e-5 5.93693,-0.88224 7.44418,-2.64681 1.50718,-1.76452 2.26078,-4.79733 2.26082,-9.09845 -4e-5,-4.44808 -0.82717,-7.35223 -2.48139,-8.71244 -1.6543,-1.39689 -4.24597,-2.09535 -7.77503,-2.0954 -0.91906,5e-5 -2.4998,0.29414 -4.74222,0.88227 m 0,26.7439 c -2e-5,8.74922 0.36759,15.49493 1.10284,20.23714 l -0.22056,0.33085 c -4.52168,-0.22056 -7.42582,-0.33085 -8.71245,-0.33085 -1.36019,0 -4.28271,0.11029 -8.76759,0.33085 l -0.11028,-0.33085 c 0.73522,-4.52164 1.10284,-11.26735 1.10284,-20.23714 l 0,-11.46954 c 0,-8.96974 -0.36762,-15.71545 -1.10284,-20.23714 l 0.11028,-0.33085 c 4.52164,0.22062 7.4074,0.3309 8.65731,0.33085 1.06606,5e-5 4.24591,-0.0551 9.53957,-0.16543 5.33037,-0.11023 8.71241,-0.16537 10.14614,-0.16542 7.16843,5e-5 12.11283,1.3786 14.83322,4.13565 2.75705,2.72039 4.1356,5.97377 4.13565,9.76015 -5e-5,0.91907 -0.0736,1.8381 -0.22057,2.7571 -0.11034,0.88231 -0.31252,1.8381 -0.60656,2.86739 -0.25738,1.02935 -0.64338,2.04028 -1.15798,3.03281 -0.47795,0.95582 -1.06614,1.87486 -1.76455,2.7571 -0.69852,0.8823 -1.58079,1.70943 -2.64682,2.4814 -1.02936,0.77201 -2.18735,1.41533 -3.47395,1.92997 1.13956,1.58076 3.56581,5.20175 7.27875,10.86298 3.74961,5.6245 6.56185,9.5212 8.43674,11.69012 l -0.22057,0.33085 c -1.43375,-0.22056 -4.24599,-0.33085 -8.43673,-0.33085 -5.03636,0 -8.25298,0.11029 -9.64986,0.33085 -0.58823,-2.31596 -2.64686,-6.15752 -6.17592,-11.52469 -0.36765,-0.58817 -1.34182,-2.09538 -2.92253,-4.52165 -1.54401,-2.42623 -2.73875,-4.22753 -3.58423,-5.40392 -2.79389,-0.22055 -4.65034,-0.51464 -5.56935,-0.88227 l 0,1.76454 M 310.9532,409.34773 c -3.82321,4e-5 -6.91116,1.70945 -9.26387,5.12821 -2.31599,3.41885 -3.47397,8.14268 -3.47395,14.17151 -2e-5,6.10241 1.19473,11.23062 3.58424,15.38464 0.99253,1.72779 2.59165,3.25339 4.79736,4.57679 2.24241,1.32341 4.19076,1.98512 5.84506,1.98511 6.46996,10e-6 10.97322,-1.67263 13.5098,-5.01793 l 1.81969,0 c -5e-5,1.65427 0.20214,3.4372 0.60656,5.34878 -2.64686,2.42626 -5.29368,4.13566 -7.94046,5.12822 -2.64685,0.95579 -6.0289,1.43369 -10.14613,1.43369 -4.30111,0 -8.4,-0.71685 -12.29668,-2.15054 -3.85997,-1.43369 -6.80087,-3.3269 -8.82274,-5.67963 -4.44813,-5.10982 -6.67219,-11.04678 -6.67218,-17.81089 -1e-5,-9.11679 2.59166,-16.17497 7.77503,-21.17455 5.22009,-5.03626 11.78199,-7.55441 19.68571,-7.55447 2.79383,6e-5 6.23102,0.44119 10.31157,1.32341 4.11723,0.88233 7.03975,1.80136 8.76759,2.75711 l 0.22057,0.33085 -2.70197,11.74526 -3.19824,0.11028 c -1.21317,-3.16144 -3.01447,-5.62444 -5.40392,-7.38903 -2.35276,-1.7645 -4.68711,-2.64678 -7.00304,-2.64682 m 21.23409,-79.63617 13.78552,0 c 5.80826,11.83721 11.21218,22.42447 16.21177,31.76183 l 17.20432,-31.76183 12.62753,0 c 3.60254,31.46776 5.71632,49.24187 6.34134,53.32238 -0.84559,-0.14705 -5.22019,-0.22057 -13.12381,-0.22057 -1.94842,0 -3.34535,0.0735 -4.1908,0.22057 -1.43375,-16.98374 -2.57335,-29.28041 -3.4188,-36.89004 -8.82279,16.13826 -15.09059,28.36141 -18.80345,36.66947 l -2.81224,0 c -1.83811,-3.8967 -7.99563,-16.10147 -18.4726,-36.61433 -2.16893,19.96144 -3.27177,32.23973 -3.30852,36.8349 -0.51467,-0.14705 -1.61751,-0.22057 -3.30852,-0.22057 -3.5291,0 -5.60612,0.0735 -6.23106,0.22057 3.63937,-22.5347 6.13914,-40.30881 7.49932,-53.32238 m -40.4401,27.90189 -20.73341,-27.07476 c 1.28664,0.22062 4.74221,0.33091 10.3667,0.33086 5.10982,5e-5 8.34482,-0.11024 9.70501,-0.33086 2.38946,3.97028 6.58026,10.05428 12.57239,18.25203 7.13166,-9.08002 11.74521,-15.16402 13.84066,-18.25203 0.91898,0.22062 2.35267,0.33091 4.30108,0.33086 4.2275,5e-5 6.78241,-0.11024 7.66474,-0.33086 l -21.33997,24.3728 c 4.66865,6.69059 11.67168,16.10149 21.00912,28.23273 -1.21318,-0.22057 -4.3379,-0.33085 -9.37415,-0.33085 -5.6613,0 -9.0801,0.11028 -10.25642,0.33085 -1.87487,-2.94091 -6.17595,-9.19033 -12.90325,-18.7483 -0.18383,0.29411 -0.90068,1.30505 -2.15054,3.03281 -1.21315,1.7278 -2.00351,2.83064 -2.3711,3.30853 -0.36764,0.47791 -1.06611,1.45208 -2.0954,2.92253 -0.99258,1.4337 -1.76457,2.53654 -2.31597,3.30852 -0.55144,0.77199 -1.23152,1.74617 -2.04026,2.92253 -0.772,1.1396 -1.50723,2.22406 -2.20568,3.25338 -0.84552,-0.22057 -3.36368,-0.33085 -7.55446,-0.33085 -1.94836,0 -3.34529,0.11028 -4.1908,0.33085 l 20.07171,-25.53077"
         inkscape:connector-curvature="0"
         clip-path="url(#clipPath3927)"
         transform="translate(2,0)"
         sodipodi:nodetypes="cccscccccccsccssccccccccccccccccsccccccccsccsccccsccscccccccccccccccsccccccsccccccccccccsccccccccscc" />
      <path
         d="m 363.68499,415.18759 0,20.67828 c 1.65424,0.66173 3.41878,0.99258 5.29364,0.99255 3.45554,3e-5 5.93693,-0.88224 7.44418,-2.64681 1.50718,-1.76452 2.26078,-4.79733 2.26082,-9.09845 -4e-5,-4.44808 -0.82717,-7.35223 -2.48139,-8.71244 -1.6543,-1.39689 -4.24597,-2.09535 -7.77503,-2.0954 -0.91906,5e-5 -2.4998,0.29414 -4.74222,0.88227 m 0,26.7439 c -2e-5,8.74922 0.36759,15.49493 1.10284,20.23714 l -0.22056,0.33085 c -4.52168,-0.22056 -7.42582,-0.33085 -8.71245,-0.33085 -1.36019,0 -4.28271,0.11029 -8.76759,0.33085 l -0.11028,-0.33085 c 0.73522,-4.52164 1.10284,-11.26735 1.10284,-20.23714 l 0,-11.46954 c 0,-8.96974 -0.36762,-15.71545 -1.10284,-20.23714 l 0.11028,-0.33085 c 4.52164,0.22062 7.4074,0.3309 8.65731,0.33085 1.06606,5e-5 4.24591,-0.0551 9.53957,-0.16543 5.33037,-0.11023 8.71241,-0.16537 10.14614,-0.16542 7.16843,5e-5 12.11283,1.3786 14.83322,4.13565 2.75705,2.72039 4.1356,5.97377 4.13565,9.76015 -5e-5,0.91907 -0.0736,1.8381 -0.22057,2.7571 -0.11034,0.88231 -0.31252,1.8381 -0.60656,2.86739 -0.25738,1.02935 -0.64338,2.04028 -1.15798,3.03281 -0.47795,0.95582 -1.06614,1.87486 -1.76455,2.7571 -0.69852,0.8823 -1.58079,1.70943 -2.64682,2.4814 -1.02936,0.77201 -2.18735,1.41533 -3.47395,1.92997 1.13956,1.58076 3.56581,5.20175 7.27875,10.86298 3.74961,5.6245 6.56185,9.5212 8.43674,11.69012 l -0.22057,0.33085 c -1.43375,-0.22056 -4.24599,-0.33085 -8.43673,-0.33085 -5.03636,0 -8.25298,0.11029 -9.64986,0.33085 -0.58823,-2.31596 -2.64686,-6.15752 -6.17592,-11.52469 -0.36765,-0.58817 -1.34182,-2.09538 -2.92253,-4.52165 -1.54401,-2.42623 -2.73875,-4.22753 -3.58423,-5.40392 -2.79389,-0.22055 -4.65034,-0.51464 -5.56935,-0.88227 l 0,1.76454 M 316.7591,415.29788 c -3.82321,4e-5 -6.91116,1.70945 -9.26387,5.12821 -2.31599,3.41885 -3.47397,8.14268 -3.47395,14.17151 -2e-5,6.10241 1.19473,11.23062 3.58424,15.38464 0.99253,1.72779 2.59165,3.25339 4.79736,4.57679 2.24241,1.32341 4.19076,1.98512 5.84506,1.98511 6.46996,10e-6 10.97322,-1.67263 13.5098,-5.01793 l 1.81969,0 c -5e-5,1.65427 0.20214,3.4372 0.60656,5.34878 -2.64686,2.42626 -5.29368,4.13566 -7.94046,5.12822 -2.64685,0.95579 -6.0289,1.43369 -10.14613,1.43369 -4.30111,0 -8.4,-0.71685 -12.29668,-2.15054 -3.85997,-1.43369 -6.80087,-3.3269 -8.82274,-5.67963 -4.44813,-5.10982 -6.67219,-11.04678 -6.67218,-17.81089 -10e-6,-9.11679 2.59166,-16.17497 7.77503,-21.17455 5.22009,-5.03626 11.78199,-7.55441 19.68571,-7.55447 2.79383,6e-5 6.23102,0.44119 10.31157,1.32341 4.11723,0.88233 7.03975,1.80136 8.76759,2.75711 l 0.22057,0.33085 -2.70197,11.74526 -3.19824,0.11028 c -1.21317,-3.16144 -3.01447,-5.62444 -5.40392,-7.38903 -2.35276,-1.7645 -4.68711,-2.64678 -7.00304,-2.64682 m 21.23409,-79.63617 13.78552,0 c 5.80826,11.83721 11.21218,22.42447 16.21177,31.76183 l 17.20432,-31.76183 12.62753,0 c 3.60254,31.46776 5.71632,49.24187 6.34134,53.32238 -0.84559,-0.14705 -5.22019,-0.22057 -13.12381,-0.22057 -1.94842,0 -3.34535,0.0735 -4.1908,0.22057 -1.43375,-16.98374 -2.57335,-29.28041 -3.4188,-36.89004 -8.82279,16.13826 -15.09059,28.36141 -18.80345,36.66947 l -2.81224,0 c -1.83811,-3.8967 -7.99563,-16.10147 -18.4726,-36.61433 -2.16893,19.96144 -3.27177,32.23973 -3.30852,36.8349 -0.51467,-0.14705 -1.61751,-0.22057 -3.30852,-0.22057 -3.5291,0 -5.60612,0.0735 -6.23106,0.22057 3.63937,-22.5347 6.13914,-40.30881 7.49932,-53.32238 m -42.4401,27.90189 -20.73341,-27.07476 c 1.28664,0.22062 4.74221,0.33091 10.3667,0.33086 5.10982,5e-5 8.34482,-0.11024 9.70501,-0.33086 2.38946,3.97028 6.58026,10.05428 12.57239,18.25203 7.13166,-9.08002 11.74521,-15.16402 13.84066,-18.25203 0.91898,0.22062 2.35267,0.33091 4.30108,0.33086 4.2275,5e-5 6.78241,-0.11024 7.66474,-0.33086 l -21.33997,24.3728 c 4.66865,6.69059 11.67168,16.10149 21.00912,28.23273 -1.21318,-0.22057 -4.3379,-0.33085 -9.37415,-0.33085 -5.6613,0 -9.0801,0.11028 -10.25642,0.33085 -1.87487,-2.94091 -6.17595,-9.19033 -12.90325,-18.7483 -0.18383,0.29411 -0.90068,1.30505 -2.15054,3.03281 -1.21315,1.7278 -2.00351,2.83064 -2.3711,3.30853 -0.36764,0.47791 -1.06611,1.45208 -2.0954,2.92253 -0.99258,1.4337 -1.76457,2.53654 -2.31597,3.30852 -0.55144,0.77199 -1.23152,1.74617 -2.04026,2.92253 -0.772,1.1396 -1.50723,2.22406 -2.20568,3.25338 -0.84552,-0.22057 -3.36368,-0.33085 -7.55446,-0.33085 -1.94836,0 -3.34529,0.11028 -4.1908,0.33085 l 20.07171,-25.53077"
         style="opacity:0.98999999;fill:#b3b3b3;fill-opacity:1;stroke:none;filter:url(#filter3947)"
         id="path3935"
         inkscape:connector-curvature="0"
         sodipodi:nodetypes="cccscccccccsccssccccccccccccccccsccccccccsccsccccsccscccccccccccccccsccccccsccccccccccccsccccccccscc" />
      <g
         style="font-size:112.93094635px;font-style:normal;font-variant:normal;font-weight:normal;font-stretch:normal;text-align:start;line-height:64.99999762%;letter-spacing:0px;word-spacing:0px;writing-mode:lr-tb;text-anchor:start;fill:#000000;fill-opacity:1;stroke:none;font-family:Sans;-inkscape-font-specification:Sans"
         id="text2985" />
      <path
         inkscape:connector-curvature="0"
         id="path3937"
         style="fill:#ffffff;fill-opacity:1;stroke:none"
         d="m 364.2509,412.03645 0,20.67828 c 1.65424,0.66173 3.41878,0.99258 5.29364,0.99255 3.45554,3e-5 5.93693,-0.88224 7.44418,-2.64681 1.50718,-1.76452 2.26078,-4.79733 2.26082,-9.09845 -4e-5,-4.44808 -0.82717,-7.35223 -2.48139,-8.71244 -1.6543,-1.39689 -4.24597,-2.09535 -7.77503,-2.0954 -0.91906,5e-5 -2.4998,0.29414 -4.74222,0.88227 m 0,26.7439 c -2e-5,8.74922 0.36759,15.49493 1.10284,20.23714 l -0.22056,0.33085 c -4.52168,-0.22056 -7.42582,-0.33085 -8.71245,-0.33085 -1.36019,0 -4.28271,0.11029 -8.76759,0.33085 l -0.11028,-0.33085 c 0.73522,-4.52164 1.10284,-11.26735 1.10284,-20.23714 l 0,-11.46954 c 0,-8.96974 -0.36762,-15.71545 -1.10284,-20.23714 l 0.11028,-0.33085 c 4.52164,0.22062 7.4074,0.3309 8.65731,0.33085 1.06606,5e-5 4.24591,-0.0551 9.53957,-0.16543 5.33037,-0.11023 8.71241,-0.16537 10.14614,-0.16542 7.16843,5e-5 12.11283,1.3786 14.83322,4.13565 2.75705,2.72039 4.1356,5.97377 4.13565,9.76015 -5e-5,0.91907 -0.0736,1.8381 -0.22057,2.7571 -0.11034,0.88231 -0.31252,1.8381 -0.60656,2.86739 -0.25738,1.02935 -0.64338,2.04028 -1.15798,3.03281 -0.47795,0.95582 -1.06614,1.87486 -1.76455,2.7571 -0.69852,0.8823 -1.58079,1.70943 -2.64682,2.4814 -1.02936,0.77201 -2.18735,1.41533 -3.47395,1.92997 1.13956,1.58076 3.56581,5.20175 7.27875,10.86298 3.74961,5.6245 6.56185,9.5212 8.43674,11.69012 l -0.22057,0.33085 c -1.43375,-0.22056 -4.24599,-0.33085 -8.43673,-0.33085 -5.03636,0 -8.25298,0.11029 -9.64986,0.33085 -0.58823,-2.31596 -2.64686,-6.15752 -6.17592,-11.52469 -0.36765,-0.58817 -1.34182,-2.09538 -2.92253,-4.52165 -1.54401,-2.42623 -2.73875,-4.22753 -3.58423,-5.40392 -2.79389,-0.22055 -4.65034,-0.51464 -5.56935,-0.88227 l 0,1.76454 m -50.92589,-26.63361 c -3.82321,4e-5 -6.91116,1.70945 -9.26387,5.12821 -2.31599,3.41885 -3.47397,8.14268 -3.47395,14.17151 -2e-5,6.10241 1.19473,11.23062 3.58424,15.38464 0.99253,1.72779 2.59165,3.25339 4.79736,4.57679 2.24241,1.32341 4.19076,1.98512 5.84506,1.98511 6.46996,1e-5 10.97322,-1.67263 13.5098,-5.01793 l 1.81969,0 c -5e-5,1.65427 0.20214,3.4372 0.60656,5.34878 -2.64686,2.42626 -5.29368,4.13566 -7.94046,5.12822 -2.64685,0.95579 -6.0289,1.43369 -10.14613,1.43369 -4.30111,0 -8.4,-0.71685 -12.29668,-2.15054 -3.85997,-1.43369 -6.80087,-3.3269 -8.82274,-5.67963 -4.44813,-5.10982 -6.67219,-11.04678 -6.67218,-17.81089 -1e-5,-9.11679 2.59166,-16.17497 7.77503,-21.17455 5.22009,-5.03626 11.78199,-7.55441 19.68571,-7.55447 2.79383,6e-5 6.23102,0.44119 10.31157,1.32341 4.11723,0.88233 7.03975,1.80136 8.76759,2.75711 l 0.22057,0.33085 -2.70197,11.74526 -3.19824,0.11028 c -1.21317,-3.16144 -3.01447,-5.62444 -5.40392,-7.38903 -2.35276,-1.7645 -4.68711,-2.64678 -7.00304,-2.64682 m 21.23409,-79.63617 13.78552,0 c 5.80826,11.83721 11.21218,22.42447 16.21177,31.76183 l 17.20432,-31.76183 12.62753,0 c 3.60254,31.46776 5.71632,49.24187 6.34134,53.32238 -0.84559,-0.14705 -5.22019,-0.22057 -13.12381,-0.22057 -1.94842,0 -3.34535,0.0735 -4.1908,0.22057 -1.43375,-16.98374 -2.57335,-29.28041 -3.4188,-36.89004 -8.82279,16.13826 -15.09059,28.36141 -18.80345,36.66947 l -2.81224,0 c -1.83811,-3.8967 -7.99563,-16.10147 -18.4726,-36.61433 -2.16893,19.96144 -3.27177,32.23973 -3.30852,36.8349 -0.51467,-0.14705 -1.61751,-0.22057 -3.30852,-0.22057 -3.5291,0 -5.60612,0.0735 -6.23106,0.22057 3.63937,-22.5347 6.13914,-40.30881 7.49932,-53.32238 M 294.119,360.41246 273.38559,333.3377 c 1.28664,0.22062 4.74221,0.33091 10.3667,0.33086 5.10982,5e-5 8.34482,-0.11024 9.70501,-0.33086 2.38946,3.97028 6.58026,10.05428 12.57239,18.25203 7.13166,-9.08002 11.74521,-15.16402 13.84066,-18.25203 0.91898,0.22062 2.35267,0.33091 4.30108,0.33086 4.2275,5e-5 6.78241,-0.11024 7.66474,-0.33086 l -21.33997,24.3728 c 4.66865,6.69059 11.67168,16.10149 21.00912,28.23273 -1.21318,-0.22057 -4.3379,-0.33085 -9.37415,-0.33085 -5.6613,0 -9.0801,0.11028 -10.25642,0.33085 -1.87487,-2.94091 -6.17595,-9.19033 -12.90325,-18.7483 -0.18383,0.29411 -0.90068,1.30505 -2.15054,3.03281 -1.21315,1.7278 -2.00351,2.83064 -2.3711,3.30853 -0.36764,0.47791 -1.06611,1.45208 -2.0954,2.92253 -0.99258,1.4337 -1.76457,2.53654 -2.31597,3.30852 -0.55144,0.77199 -1.23152,1.74617 -2.04026,2.92253 -0.772,1.1396 -1.50723,2.22406 -2.20568,3.25338 -0.84552,-0.22057 -3.36368,-0.33085 -7.55446,-0.33085 -1.94836,0 -3.34529,0.11028 -4.1908,0.33085 L 294.119,360.41246"
         sodipodi:nodetypes="cccscccccccsccssccccccccccccccccsccccccccsccsccccsccscccccccccccccccsccccccsccccccccccccsccccccccscc" />
    </g>
  </g>
  <path
     d="m 65.806437,39.999376 c 0,19.118312 -6.686517,25.806049 -25.806446,25.806049 -19.119927,0 -25.806445,-6.687737 -25.806445,-25.806049 0,-19.118976 6.686518,-25.806049 25.806445,-25.806049 19.119929,0 25.806446,6.687073 25.806446,25.806049 z"
     id="path4617"
     style="fill:none;stroke:#000000;stroke-width:1.29031241;stroke-miterlimit:4;stroke-opacity:1;stroke-dasharray:none"
     inkscape:connector-curvature="0" />
  <path
     inkscape:connector-curvature="0"
     style="fill:none;stroke:#ffffff;stroke-width:2.58062482;stroke-miterlimit:4;stroke-opacity:1;stroke-dasharray:none"
     id="path4649"
     d="m 65.806437,39.999376 c 0,19.118312 -6.686517,25.806049 -25.806446,25.806049 -19.119927,0 -25.806445,-6.687737 -25.806445,-25.806049 0,-19.118976 6.686518,-25.806049 25.806445,-25.806049 19.119929,0 25.806446,6.687073 25.806446,25.806049 z" />
</svg>
